<svg width="140" height="135" viewBox="0 0 140 135" fill="none" xmlns="http://www.w3.org/2000/svg">
<path d="M0 30.6309C0 14.0623 13.4315 0.630859 30 0.630859H110C126.569 0.630859 140 14.0623 140 30.6309V104.736C140 121.305 126.569 134.736 110 134.736H30C13.4315 134.736 0 121.305 0 104.736V30.6309Z" fill="#FF6422"/>
<g clip-path="url(#clip0_2119_1726)">
<path d="M83 41.5059L68.8579 27.3637L54.7157 41.5059" stroke="white" stroke-width="8" stroke-linecap="round" stroke-linejoin="round"/>
<path d="M68.9999 31.6836V64.6836" stroke="white" stroke-width="8" stroke-linecap="round"/>
</g>
<path d="M56.4648 83.6758H48.4844V105.684H44.0723V83.6758H36.1621V80.0898H56.4648V83.6758ZM79.7734 93.5547C79.7734 96.0625 79.3398 98.2656 78.4727 100.164C77.6055 102.051 76.3633 103.504 74.7461 104.523C73.1406 105.531 71.2891 106.035 69.1914 106.035C67.1172 106.035 65.2656 105.531 63.6367 104.523C62.0195 103.504 60.7656 102.057 59.875 100.182C58.9961 98.3066 58.5508 96.1445 58.5391 93.6953V92.2539C58.5391 89.7578 58.9785 87.5547 59.8574 85.6445C60.748 83.7344 61.9961 82.2754 63.6016 81.2676C65.2188 80.248 67.0703 79.7383 69.1562 79.7383C71.2422 79.7383 73.0879 80.2422 74.6934 81.25C76.3105 82.2461 77.5586 83.6875 78.4375 85.5742C79.3164 87.4492 79.7617 89.6348 79.7734 92.1309V93.5547ZM75.3262 92.2188C75.3262 89.3828 74.7871 87.209 73.709 85.6973C72.6426 84.1855 71.125 83.4297 69.1562 83.4297C67.2344 83.4297 65.7285 84.1855 64.6387 85.6973C63.5605 87.1973 63.0098 89.3242 62.9863 92.0781V93.5547C62.9863 96.3672 63.5312 98.541 64.6211 100.076C65.7227 101.611 67.2461 102.379 69.1914 102.379C71.1602 102.379 72.6719 101.629 73.7266 100.129C74.793 98.6289 75.3262 96.4375 75.3262 93.5547V92.2188ZM88.6504 96.1738V105.684H84.2031V80.0898H93.9941C96.8535 80.0898 99.1211 80.834 100.797 82.3223C102.484 83.8105 103.328 85.7793 103.328 88.2285C103.328 90.7363 102.502 92.6875 100.85 94.082C99.209 95.4766 96.9062 96.1738 93.9414 96.1738H88.6504ZM88.6504 92.6055H93.9941C95.5762 92.6055 96.7832 92.2363 97.6152 91.498C98.4473 90.748 98.8633 89.6699 98.8633 88.2637C98.8633 86.8809 98.4414 85.7793 97.5977 84.959C96.7539 84.127 95.5938 83.6992 94.1172 83.6758H88.6504V92.6055Z" fill="white"/>
<defs>
<clipPath id="clip0_2119_1726">
<rect width="48" height="48" fill="white" transform="translate(46 20.6836)"/>
</clipPath>
</defs>
</svg>
